<svg width="20" height="12" viewBox="0 0 20 12" fill="none" xmlns="http://www.w3.org/2000/svg">
<path fill-rule="evenodd" clip-rule="evenodd" d="M8.22503 5.399C8.22503 5.399 9.96509 5.27478 9.96509 3.28743C9.96509 1.30561 8.54189 0.333344 6.73505 0.333344H0.791626V11.4311H6.73451C6.73451 11.4311 10.365 11.5393 10.365 8.15323C10.3652 8.15323 10.521 5.399 8.22503 5.399ZM10.8154 7.41891C10.8154 7.39711 10.8211 3.15769 15.2018 3.15769C19.8274 3.15769 19.1769 7.9749 19.1769 7.9749H13.2616C13.2616 10.0326 15.2686 9.90289 15.2686 9.90289C17.1698 9.90289 17.1033 8.70948 17.1033 8.70948H19.1102C19.1102 11.8795 15.2018 11.6636 15.2018 11.6636C10.5153 11.6636 10.8154 7.41891 10.8154 7.41891ZM15.2464 4.78313C13.4839 4.78313 13.2392 6.48971 13.2392 6.48971H16.9865C16.9865 6.48971 17.0143 4.78313 15.2464 4.78313ZM6.73478 2.3044H3.41038V4.78313H6.52903C7.06841 4.78313 7.541 4.61557 7.541 3.45998C7.541 2.3044 6.73478 2.3044 6.73478 2.3044ZM6.56823 9.46009H3.41038V6.48971H6.73478C6.73478 6.48971 7.94141 6.47895 7.93574 8.01797C7.93574 9.31433 7.04083 9.44932 6.56823 9.46009ZM12.7444 2.35325V0.986773H17.4591V2.35325H12.7444Z" fill="#ffffff"/>
</svg>
