<svg width="10" height="16" viewBox="0 0 10 16" fill="none" xmlns="http://www.w3.org/2000/svg">
<path d="M8.78312 0.211557L6.78402 0.208344C4.53809 0.208344 3.08668 1.70001 3.08668 4.00875V5.76099H1.07667C0.90298 5.76099 0.762329 5.90204 0.762329 6.07603V8.61483C0.762329 8.78882 0.90314 8.92971 1.07667 8.92971H3.08668V15.3359C3.08668 15.5099 3.22733 15.6508 3.40102 15.6508H6.02351C6.1972 15.6508 6.33785 15.5097 6.33785 15.3359V8.92971H8.68802C8.86171 8.92971 9.00236 8.78882 9.00236 8.61483L9.00332 6.07603C9.00332 5.99249 8.97012 5.91249 8.91126 5.85337C8.8524 5.79425 8.77222 5.76099 8.68882 5.76099H6.33785V4.27559C6.33785 3.56165 6.50769 3.19922 7.43611 3.19922L8.7828 3.19874C8.95633 3.19874 9.09698 3.05768 9.09698 2.88386V0.526436C9.09698 0.35277 8.95649 0.211878 8.78312 0.211557Z" fill="#ffffff"/>
</svg>
