<svg width="20" height="14" viewBox="0 0 20 14" fill="none" xmlns="http://www.w3.org/2000/svg">
<path d="M0.2231 6.96189C0.103837 3.76043 2.85426 0.801897 5.9975 0.763513C7.59952 0.624202 9.1581 1.25848 10.3705 2.29298C9.87316 2.85049 9.36714 3.40156 8.82664 3.91746C7.75933 3.25634 6.47429 2.75251 5.22689 3.19997C3.21495 3.78405 1.99652 6.20602 2.74106 8.21273C3.35764 10.3086 5.85796 11.4587 7.81751 10.5783C8.83217 10.2079 9.50115 9.2534 9.7947 8.22777C8.63182 8.20414 7.46867 8.21891 6.30579 8.18616C6.30289 7.48075 6.3 6.77802 6.30289 6.07261C8.24217 6.06966 10.1843 6.06375 12.1265 6.08147C12.2458 7.80983 11.9957 9.65952 10.8936 11.0467C9.38452 13.0269 6.59645 13.608 4.32834 12.8312C1.92122 12.0251 0.170709 9.55269 0.2231 6.96189Z" fill="#ffffff"/>
<path d="M15.9066 4.29379C16.4824 4.29379 17.0579 4.29379 17.6363 4.29379C17.6395 4.88378 17.645 5.47672 17.6482 6.06645C18.2266 6.07235 18.8082 6.0753 19.3868 6.07826C19.3868 6.66825 19.3868 7.25501 19.3868 7.845C18.8084 7.84796 18.2268 7.85091 17.6482 7.85386C17.6424 8.4468 17.6395 9.03652 17.6363 9.62947C17.0579 9.62651 16.479 9.62947 15.9034 9.62947C15.8979 9.03652 15.8979 8.4468 15.8919 7.85681C15.3134 7.85064 14.7319 7.84796 14.1532 7.84473C14.1532 7.25475 14.1532 6.66798 14.1532 6.07799C14.7319 6.07503 15.3106 6.07208 15.8919 6.06618C15.8948 5.47672 15.9006 4.88378 15.9066 4.29379Z" fill="#ffffff"/>
</svg>
