<svg width="22" height="15" viewBox="0 0 22 15" fill="none" xmlns="http://www.w3.org/2000/svg">
<path d="M0.0040739 7.31972C-0.125839 3.8444 2.8702 0.632772 6.29412 0.591105C8.0392 0.439877 9.73697 1.12841 11.0576 2.2514C10.5159 2.85661 9.96467 3.45482 9.37591 4.01485C8.21328 3.29718 6.81348 2.75025 5.4547 3.23599C3.26309 3.87004 1.93585 6.49919 2.74688 8.67756C3.41853 10.9527 6.14212 12.2013 8.27666 11.2455C9.38193 10.8434 10.1106 9.80726 10.4304 8.69388C9.16368 8.66824 7.89667 8.68427 6.62994 8.64872C6.62679 7.88296 6.62363 7.12012 6.62679 6.35437C8.73924 6.35116 10.8549 6.34475 12.9705 6.36398C13.1004 8.2402 12.8279 10.2481 11.6274 11.754C9.9836 13.9035 6.94655 14.5344 4.4759 13.6911C1.85383 12.8161 -0.0529962 10.1321 0.0040739 7.31972Z" fill="#5A5A5A"/>
<path d="M18.0102 3.68146C18.6703 3.68146 19.33 3.68146 19.9932 3.68146C19.9968 4.36948 20.0031 5.06094 20.0067 5.74865C20.6699 5.75553 21.3366 5.75897 22 5.76242C22 6.45044 22 7.1347 22 7.82272C21.3369 7.82616 20.6702 7.82961 20.0067 7.83305C20.0001 8.52451 19.9968 9.21222 19.9932 9.90368C19.33 9.90024 18.6663 9.90368 18.0065 9.90368C18.0002 9.21222 18.0002 8.52451 17.9933 7.83649C17.3301 7.82929 16.6634 7.82616 16 7.82241C16 7.13439 16 6.45012 16 5.7621C16.6634 5.75866 17.3268 5.75522 17.9933 5.74833C17.9966 5.06094 18.0032 4.36948 18.0102 3.68146Z" fill="#5A5A5A"/>
</svg>
