<svg width="13" height="16" viewBox="0 0 13 16" fill="none" xmlns="http://www.w3.org/2000/svg">
<path d="M10.8089 1.80035C9.75561 0.773753 8.29803 0.208344 6.70463 0.208344C4.27063 0.208344 2.77362 1.22136 1.94639 2.07113C0.926898 3.11837 0.342285 4.50889 0.342285 5.88624C0.342285 7.61559 1.05472 8.94293 2.24778 9.43673C2.32788 9.47005 2.40847 9.48684 2.48748 9.48684C2.73917 9.48684 2.9386 9.31963 3.00769 9.05141C3.04796 8.89753 3.14128 8.51792 3.18185 8.35312C3.26871 8.02767 3.19853 7.87113 3.00912 7.6445C2.66406 7.22996 2.50337 6.73976 2.50337 6.1018C2.50337 4.20685 3.8931 2.19289 6.46883 2.19289C8.51256 2.19289 9.78211 3.37226 9.78211 5.27072C9.78211 6.46873 9.52795 7.57821 9.06632 8.39491C8.74554 8.96237 8.18146 9.63882 7.3155 9.63882C6.94102 9.63882 6.60464 9.48263 6.39238 9.21035C6.19187 8.95295 6.12579 8.62044 6.20643 8.2739C6.29753 7.88236 6.42175 7.47393 6.54197 7.07909C6.76123 6.35795 6.96851 5.67684 6.96851 5.13343C6.96851 4.20394 6.40571 3.5794 5.56817 3.5794C4.50377 3.5794 3.66988 4.67705 3.66988 6.0783C3.66988 6.76552 3.84977 7.27952 3.9312 7.47689C3.79711 8.05372 3.00019 11.4831 2.84902 12.1298C2.76162 12.5073 2.2351 15.4889 3.10659 15.7267C4.08576 15.9938 4.961 13.0899 5.05008 12.7617C5.12228 12.4949 5.37491 11.4858 5.52973 10.8654C6.00241 11.3277 6.7635 11.6402 7.50407 11.6402C8.90016 11.6402 10.1557 11.0024 11.0394 9.84426C11.8965 8.72095 12.3686 7.1553 12.3686 5.43593C12.3686 4.09175 11.8 2.76662 10.8089 1.80035Z" fill="#666666"/>
</svg>
