<svg width="16" height="14" viewBox="0 0 16 14" fill="none" xmlns="http://www.w3.org/2000/svg">
<path d="M15.7917 2.1344C15.2185 2.39029 14.6019 2.56336 13.9553 2.64066C14.6155 2.24242 15.1222 1.61231 15.3613 0.860244C14.7436 1.22919 14.059 1.49684 13.3311 1.64111C12.7479 1.01579 11.917 0.625 10.9969 0.625C9.23153 0.625 7.79976 2.06647 7.79976 3.84377C7.79976 4.09605 7.82813 4.34162 7.88297 4.57734C5.2259 4.44316 2.86997 3.1618 1.29299 1.21383C1.01785 1.68912 0.860004 2.24242 0.860004 2.83222C0.860004 3.94867 1.42485 4.93429 2.28224 5.51136C1.75841 5.4948 1.2651 5.35005 0.834254 5.10832C0.834015 5.12201 0.834015 5.13569 0.834015 5.14913C0.834015 6.70871 1.93652 8.00951 3.39881 8.30501C3.13082 8.37894 2.8478 8.41807 2.55667 8.41807C2.35019 8.41807 2.15015 8.39814 1.95512 8.3607C2.36188 9.63918 3.54235 10.5698 4.94169 10.596C3.8473 11.4594 2.46893 11.9739 0.970636 11.9739C0.713131 11.9739 0.458011 11.9587 0.208374 11.9287C1.6225 12.8423 3.30344 13.375 5.10883 13.375C10.9895 13.375 14.2054 8.4704 14.2054 4.21656C14.2054 4.07709 14.2023 3.9381 14.1961 3.80032C14.8213 3.34663 15.3632 2.77989 15.7917 2.1344Z" fill="#666666"/>
</svg>
